<?xml version="1.0"?>
<svg width="240" height="67" xmlns="http://www.w3.org/2000/svg">
 <!-- Created with Method Draw - http://github.com/duopixel/Method-Draw/ -->
 <g>
  <title>background</title>
  <rect fill="none" id="canvas_background" height="69" width="242" y="-1" x="-1"/>
  <g display="none" overflow="visible" y="0" x="0" height="100%" width="100%" id="canvasGrid">
   <rect fill="url(#gridpattern)" stroke-width="0" y="0" x="0" height="100%" width="100%"/>
  </g>
 </g>
 <g>
  <title>Layer 1</title>
  <path stroke="#000" transform="rotate(-11.5934 28.3736 32.6621)" id="svg_8" d="m14.739797,46.511154c1.164845,-3.278339 2.75932,-6.054832 4.271646,-7.438671c1.620413,-1.482491 0.901466,-2.12553 -0.769945,-0.688751c-0.703209,0.604404 -0.904184,0.165478 -0.904184,-1.974979c0,-5.107216 3.080105,-8.267389 10.490835,-10.763742c6.270622,-2.112303 10.893753,-4.487675 12.810524,-6.582205l1.562027,-1.706903l0,2.969753c0,3.672108 -1.325451,9.219709 -2.792526,11.688368c-1.556377,2.618748 -6.890965,7.452663 -9.508814,8.616245c-2.345331,1.042496 -7.354099,1.34935 -10.031046,0.61467c-1.334032,-0.366146 -1.757471,-0.086384 -2.448633,1.618031c-0.459684,1.133198 -0.835815,2.745693 -0.835815,3.582916c0,0.950623 -0.443518,1.522469 -1.180908,1.522469c-0.875751,0 -1.0471,-0.37653 -0.663159,-1.457199z" stroke-opacity="null" stroke-width="0" fill="#4c4c4c"/>
  <text stroke="#000" transform="matrix(1.22308 0 0 1.42631 -175.431 -162.965)" xml:space="preserve" text-anchor="left" font-family="Helvetica, Arial, sans-serif" font-size="24" id="svg_1" y="143.089886" x="183.822496" stroke-width="0" fill="#4c4c4c">Lean</text>
  <text stroke="#000" transform="matrix(1.28914 0 0 1.44665 -172.213 -163.4)" xml:space="preserve" text-anchor="left" font-family="Helvetica, Arial, sans-serif" font-size="24" id="svg_2" y="141.960348" x="221.119922" stroke-width="0" fill="#007f00">Web</text>
  <text font-weight="normal" stroke="#000" transform="matrix(0.671302 0 0 0.519863 -17.0123 21.4106)" xml:space="preserve" text-anchor="left" font-family="Helvetica, Arial, sans-serif" font-size="24" id="svg_5" y="64.939949" x="98.908982" stroke-opacity="null" stroke-width="0" fill="#333333">S O L U T I O N S</text>
  <path stroke="#000" transform="rotate(-15.2952 37.1829 34.6197)" id="svg_7" d="m23.351116,48.117409c1.181757,-3.195164 2.799385,-5.901215 4.33367,-7.249947c1.64394,-1.444878 0.91456,-2.071609 -0.781126,-0.671276c-0.713415,0.589069 -0.917309,0.161278 -0.917309,-1.924877c0,-4.977638 3.124826,-8.057636 10.643158,-10.490654c6.36166,-2.05871 11.051918,-4.373817 12.996521,-6.415207l1.584709,-1.663601l0,2.894409c0,3.578945 -1.3447,8.985796 -2.833076,11.391823c-1.578979,2.552307 -6.991016,7.263584 -9.64687,8.397648c-2.379383,1.016045 -7.46088,1.315113 -10.176693,0.599072c-1.353403,-0.356853 -1.782991,-0.08419 -2.484188,1.576981c-0.466364,1.104446 -0.847952,2.676033 -0.847952,3.492016c0,0.926502 -0.449959,1.483841 -1.198053,1.483841c-0.888468,0 -1.062307,-0.366978 -0.672791,-1.420227z" stroke-opacity="null" stroke-width="0" fill="#007f00"/>
 </g>
</svg>